<svg xmlns="http://www.w3.org/2000/svg" xmlns:xlink="http://www.w3.org/1999/xlink" viewBox="0 0 73.99991 73.99988">
  <defs>
    <clipPath id="clip-path" transform="translate(-208 -518)">
      <path d="M272.87079,554.99988a27.8709,27.8709,0,1,0-27.8709,27.87091A27.86964,27.86964,0,0,0,272.87079,554.99988Zm4.12912,0a32,32,0,1,1-32-31.99988A31.9945,31.9945,0,0,1,276.99991,554.99988Zm-15.48392-.77417v1.5484a1.553,1.553,0,0,1-1.5484,1.5484h-12.6451v12.64508a1.553,1.553,0,0,1-1.5484,1.5484h-1.5484a1.553,1.553,0,0,1-1.54829-1.5484V557.32251H230.0322a1.55306,1.55306,0,0,1-1.5484-1.5484v-1.5484a1.553,1.553,0,0,1,1.5484-1.54828h12.6452v-12.6452a1.553,1.553,0,0,1,1.54829-1.5484h1.5484a1.553,1.553,0,0,1,1.5484,1.5484v12.6452h12.6451A1.55293,1.55293,0,0,1,261.516,554.22571Z" fill="none"/>
    </clipPath>
    <clipPath id="clip-path-2" transform="translate(-208 -518)">
      <rect width="1366" height="1383" fill="none"/>
    </clipPath>
  </defs>
  <title>icon-add</title>
  <g id="Layer_2" data-name="Layer 2">
    <g id="Layer_1-2" data-name="Layer 1">
      <g clip-path="url(#clip-path)">
        <g clip-path="url(#clip-path-2)">
          <rect width="73.99991" height="73.99988" fill="#18acc4"/>
        </g>
      </g>
    </g>
  </g>
</svg>
