<svg xmlns="http://www.w3.org/2000/svg" xmlns:xlink="http://www.w3.org/1999/xlink" viewBox="0 0 42 42"><defs><style>.cls-1{fill:none;}.cls-2{clip-path:url(#clip-path);}.cls-3{clip-path:url(#clip-path-2);}.cls-4{isolation:isolate;}.cls-5{clip-path:url(#clip-path-3);}.cls-6{clip-path:url(#clip-path-4);}.cls-7{fill:#fff;}</style><clipPath id="clip-path"><path class="cls-1" d="M27.63,14.56s0,0,0,.06S27.64,14.58,27.63,14.56ZM29.7,29.37,29.07,29l-.73.17a12.93,12.93,0,0,1-2.91.34A10.8,10.8,0,0,1,17,25.91c6.16-.18,11.1-4.07,11.1-8.85a7.13,7.13,0,0,0-.19-1.54c4.18.81,7.27,3.57,7.27,6.85a5.9,5.9,0,0,1-1.91,4.18l-.91.9.57,1.15a15.9,15.9,0,0,0,1.63,2.56A11.43,11.43,0,0,1,29.7,29.37ZM12.93,23.65l-.63.41a11.55,11.55,0,0,1-4.86,1.8,15.15,15.15,0,0,0,1.63-2.57l.58-1.16-.91-.9a5.89,5.89,0,0,1-1.91-4.17c0-3.91,4.37-7.09,9.74-7.09s9.74,3.18,9.74,7.09-4.37,7.08-9.74,7.08a12.92,12.92,0,0,1-2.91-.33Zm21.58,4.16a7.62,7.62,0,0,0,2.43-5.44c0-4.43-4.23-8.09-9.75-8.74C25.45,10.44,21.35,8.2,16.57,8.2c-6.36,0-11.51,4-11.51,8.86a7.62,7.62,0,0,0,2.43,5.43,14.18,14.18,0,0,1-2.09,3,1.31,1.31,0,0,0-.24,1.39,1.27,1.27,0,0,0,1.17.77,12.74,12.74,0,0,0,6.94-2.14,14.73,14.73,0,0,0,1.55.26c1.74,3.18,5.84,5.43,10.61,5.43a14.94,14.94,0,0,0,3.32-.38A12.76,12.76,0,0,0,35.68,33a1.29,1.29,0,0,0,.93-2.16A14,14,0,0,1,34.51,27.81Z"/></clipPath><clipPath id="clip-path-2"><rect class="cls-1" x="5" y="5" width="32" height="32"/></clipPath><clipPath id="clip-path-3"><rect class="cls-1" y="3" width="42" height="36"/></clipPath><clipPath id="clip-path-4"><rect class="cls-1" x="5" y="8" width="32" height="26"/></clipPath></defs><title>icon-messaging</title><g id="Layer_2" data-name="Layer 2"><g id="Layer_1-2" data-name="Layer 1"><g class="cls-2"><g class="cls-3"><g class="cls-4"><g class="cls-5"><g class="cls-6"><rect x="0.05" y="3.2" width="41.9" height="34.81"/></g><g class="cls-3"><g class="cls-6"><rect class="cls-7" width="42" height="42"/></g></g></g></g></g></g></g></g></svg>