<svg xmlns="http://www.w3.org/2000/svg" xmlns:xlink="http://www.w3.org/1999/xlink" viewBox="0 0 26 26"><defs><style>.cls-1{fill:none;}.cls-2{clip-path:url(#clip-path);}.cls-3{clip-path:url(#clip-path-2);}.cls-4{isolation:isolate;}.cls-5{clip-path:url(#clip-path-3);}.cls-6{clip-path:url(#clip-path-4);}.cls-7{fill:#fff;}</style><clipPath id="clip-path"><path class="cls-1" d="M18.59,12.67l-5.48,5.58a.13.13,0,0,1-.22,0L7.41,12.67A3.22,3.22,0,0,1,7.64,8a3.17,3.17,0,0,1,4.27.33L13,9.4l1.09-1.11A3.17,3.17,0,0,1,18.36,8,3.23,3.23,0,0,1,18.59,12.67Zm.73-5.86A4.7,4.7,0,0,0,13,7.28a4.7,4.7,0,0,0-6.32-.47,4.72,4.72,0,0,0-.34,6.91l5.48,5.59A1.66,1.66,0,0,0,13,19.8a1.64,1.64,0,0,0,1.18-.49l5.48-5.58A4.73,4.73,0,0,0,19.32,6.81Z"/></clipPath><clipPath id="clip-path-2"><rect class="cls-1" x="5" y="5" width="16" height="16"/></clipPath><clipPath id="clip-path-3"><rect class="cls-1" width="27" height="25"/></clipPath><clipPath id="clip-path-4"><rect class="cls-1" x="5" y="5" width="16" height="15"/></clipPath></defs><title>icon-heart</title><g id="Layer_2" data-name="Layer 2"><g id="Layer_1-2" data-name="Layer 1"><g class="cls-2"><g class="cls-3"><g class="cls-4"><g class="cls-5"><g class="cls-6"><rect y="0.8" width="26" height="24"/></g><g class="cls-3"><g class="cls-6"><rect class="cls-7" width="26" height="26"/></g></g></g></g></g></g></g></g></svg>