<svg xmlns="http://www.w3.org/2000/svg" xmlns:xlink="http://www.w3.org/1999/xlink" viewBox="0 0 42 42"><defs><style>.cls-1,.cls-2{fill:none;}.cls-1{clip-rule:evenodd;}.cls-3{clip-path:url(#clip-path);}.cls-4{clip-path:url(#clip-path-2);}.cls-5{isolation:isolate;}.cls-6{clip-path:url(#clip-path-3);}.cls-7{fill:#18acc4;}.cls-8{fill:#fff;}</style><clipPath id="clip-path"><path class="cls-1" d="M28.22,24.18c-.39-.2-2.34-1.16-2.71-1.29s-.62-.2-.89.2-1,1.29-1.26,1.56-.46.3-.85.1A10.81,10.81,0,0,1,17.11,20c-.4-.7.41-.65,1.17-2.17a.73.73,0,0,0,0-.69c-.1-.2-.89-2.15-1.22-2.94s-.65-.67-.89-.68-.49,0-.76,0a1.47,1.47,0,0,0-1.06.5,4.45,4.45,0,0,0-1.38,3.3,7.78,7.78,0,0,0,1.61,4.1c.2.27,2.8,4.27,6.77,6,2.52,1.08,3.5,1.18,4.76,1a4.05,4.05,0,0,0,2.67-1.88A3.32,3.32,0,0,0,29,24.65C28.88,24.47,28.61,24.37,28.22,24.18ZM21,34.05a13.15,13.15,0,0,1-6.71-1.84l-.48-.28-5,1.31,1.33-4.87-.31-.5a13.2,13.2,0,1,1,24.49-7A13.32,13.32,0,0,1,21,34.05ZM32.21,9.65a15.87,15.87,0,0,0-25,19.14L5,37l8.41-2.21A15.73,15.73,0,0,0,21,36.72h0A16,16,0,0,0,37,20.86,15.93,15.93,0,0,0,32.21,9.65Z"/></clipPath><clipPath id="clip-path-2"><rect class="cls-2" x="5" y="5" width="32" height="32"/></clipPath><clipPath id="clip-path-3"><rect class="cls-2" width="42" height="42"/></clipPath></defs><title>icon-whatsapp</title><g id="Layer_2" data-name="Layer 2"><g id="Layer_1-2" data-name="Layer 1"><g class="cls-3"><g class="cls-4"><g class="cls-5"><g class="cls-6"><g class="cls-4"><rect class="cls-7" width="42" height="42"/></g><g class="cls-4"><g class="cls-4"><rect class="cls-8" width="42" height="42"/></g></g></g></g></g></g></g></g></svg>