<svg xmlns="http://www.w3.org/2000/svg" xmlns:xlink="http://www.w3.org/1999/xlink" viewBox="0 0 42 42"><defs><style>.cls-1{fill:none;}.cls-2{clip-path:url(#clip-path);}.cls-3{clip-path:url(#clip-path-2);}.cls-4{isolation:isolate;}.cls-5{clip-path:url(#clip-path-3);}.cls-6{clip-path:url(#clip-path-4);}.cls-7{fill:#fff;}</style><clipPath id="clip-path"><path class="cls-1" d="M34,31H8a1,1,0,0,1-1-1V17.19c1.43,1.17,3.68,3,8.17,6.54C16.45,24.76,18.71,27,21,27s4.52-2.22,5.83-3.27c4.49-3.57,6.74-5.37,8.17-6.54V30A1,1,0,0,1,34,31ZM8,11H34a1,1,0,0,1,1,1v2.59c-1.37,1.15-3.32,2.75-9.41,7.58C24.53,23,22.45,25,21,25s-3.54-2-4.59-2.83c-6.09-4.83-8-6.43-9.41-7.58V12A1,1,0,0,1,8,11ZM34,9H8a3,3,0,0,0-3,3V30a3,3,0,0,0,3,3H34a3,3,0,0,0,3-3V12A3,3,0,0,0,34,9Z"/></clipPath><clipPath id="clip-path-2"><rect class="cls-1" x="5" y="5" width="32" height="32"/></clipPath><clipPath id="clip-path-3"><rect class="cls-1" y="4" width="42" height="34"/></clipPath><clipPath id="clip-path-4"><rect class="cls-1" x="5" y="9" width="32" height="24"/></clipPath></defs><title>icon-mail</title><g id="Layer_2" data-name="Layer 2"><g id="Layer_1-2" data-name="Layer 1"><g class="cls-2"><g class="cls-3"><g class="cls-4"><g class="cls-5"><g class="cls-6"><rect y="4" width="42" height="34"/></g><g class="cls-3"><g class="cls-6"><rect class="cls-7" width="42" height="42"/></g></g></g></g></g></g></g></g></svg>