<svg xmlns="http://www.w3.org/2000/svg" xmlns:xlink="http://www.w3.org/1999/xlink" viewBox="0 0 34 34">
  <defs>
    <clipPath id="clip-path">
      <path d="M22.41611,19.384c-.29471-.15-1.7572-.868-2.0304-.964-.27322-.102-.4714-.15-.66962.14991s-.76608.96411-.9429,1.16711c-.17138.199-.3482.226-.64279.075a8.08535,8.08535,0,0,1-4.04471-3.535c-.30529-.525.30542-.488.8732-1.62293a.55105.55105,0,0,0-.02679-.52c-.075-.15-.66959-1.613-.916-2.207-.24112-.579-.48752-.498-.6697-.509-.17142-.011-.3696-.011-.56782-.011a1.10051,1.10051,0,0,0-.7929.37,3.33954,3.33954,0,0,0-1.03928,2.48A5.81954,5.81954,0,0,0,12.1571,17.332a13.28116,13.28116,0,0,0,5.07859,4.489c1.88571.81495,2.625.88392,3.5679.745A3.04563,3.04563,0,0,0,22.8071,21.152a2.48737,2.48737,0,0,0,.17151-1.41492C22.90891,19.604,22.71069,19.52905,22.41611,19.384ZM16.9946,26.787a9.86661,9.86661,0,0,1-5.03571-1.376L11.6,25.196l-3.73932.981.9964-3.64795-.23569-.375A9.90428,9.90428,0,1,1,26.99109,16.898,9.99479,9.99479,0,0,1,16.9946,26.787ZM25.4054,8.48706A11.89676,11.89676,0,0,0,6.6875,22.839L5,29l6.30539-1.655a11.85853,11.85853,0,0,0,5.6839,1.446h.00531A12.00758,12.00758,0,0,0,29,16.898,11.93986,11.93986,0,0,0,25.4054,8.48706Z" fill="none" clip-rule="evenodd"/>
    </clipPath>
    <clipPath id="clip-path-2">
      <rect x="5" y="5" width="24" height="24" fill="none"/>
    </clipPath>
    <clipPath id="clip-path-3">
      <rect width="34" height="34" fill="none"/>
    </clipPath>
  </defs>
  <title>icon-whatsapp-green</title>
  <g id="Layer_2" data-name="Layer 2">
    <g id="Layer_1-2" data-name="Layer 1">
      <g clip-path="url(#clip-path)">
        <g clip-path="url(#clip-path-2)">
          <g style="isolation: isolate">
            <g clip-path="url(#clip-path-3)">
              <g clip-path="url(#clip-path-2)">
                <rect width="34" height="34" fill="#18acc4"/>
              </g>
              <g clip-path="url(#clip-path-2)">
                <g clip-path="url(#clip-path-2)">
                  <rect width="34" height="34" fill="#25d366"/>
                </g>
              </g>
            </g>
          </g>
        </g>
      </g>
    </g>
  </g>
</svg>
