<svg xmlns="http://www.w3.org/2000/svg" xmlns:xlink="http://www.w3.org/1999/xlink" viewBox="0 0 74 74"><defs><style>.cls-1{fill:none;}.cls-2{clip-path:url(#clip-path);}.cls-3{clip-path:url(#clip-path-2);}.cls-4{fill:#18acc4;}</style><clipPath id="clip-path" transform="translate(-143 -513)"><path class="cls-1" d="M207.87,550A27.87,27.87,0,1,0,180,577.87,27.87,27.87,0,0,0,207.87,550Zm4.13,0a32,32,0,1,1-32-32A32,32,0,0,1,212,550Zm-15.48-.77v1.54a1.55,1.55,0,0,1-1.55,1.55H182.32V565a1.55,1.55,0,0,1-1.55,1.55h-1.54a1.55,1.55,0,0,1-1.55-1.55V552.32H165a1.55,1.55,0,0,1-1.55-1.55v-1.54a1.55,1.55,0,0,1,1.55-1.55h12.65V535a1.55,1.55,0,0,1,1.55-1.55h1.54a1.55,1.55,0,0,1,1.55,1.55v12.65H195A1.55,1.55,0,0,1,196.52,549.23Z"/></clipPath><clipPath id="clip-path-2" transform="translate(-143 -513)"><rect class="cls-1" width="360" height="1113"/></clipPath></defs><title>icon-add</title><g id="Layer_2" data-name="Layer 2"><g id="Layer_1-2" data-name="Layer 1"><g class="cls-2"><g class="cls-3"><rect class="cls-4" width="74" height="74"/></g></g></g></g></svg>